<?xml version="1.0" standalone="no"?>
<!DOCTYPE svg PUBLIC "-//W3C//DTD SVG 20010904//EN"
 "http://www.w3.org/TR/2001/REC-SVG-20010904/DTD/svg10.dtd">
<svg version="1.0" xmlns="http://www.w3.org/2000/svg"
 width="512.000000pt" height="512.000000pt" viewBox="0 0 512.000000 512.000000"
 preserveAspectRatio="xMidYMid meet">
<metadata>
Created by potrace 1.11, written by Peter Selinger 2001-2013
</metadata>
<g transform="translate(0.000000,512.000000) scale(0.100000,-0.100000)"
fill="#000000" stroke="none">
<path d="M735 5041 c-39 -17 -69 -60 -69 -98 0 -36 17 -57 89 -107 37 -26 58
-80 53 -137 -3 -28 -28 -96 -65 -175 -79 -168 -93 -218 -100 -344 -7 -132 18
-245 79 -363 105 -202 394 -409 742 -531 16 -6 15 -10 -16 -49 -20 -23 -60
-80 -90 -127 -143 -220 -208 -424 -208 -655 0 -139 19 -251 66 -386 119 -345
365 -663 1079 -1391 l281 -287 281 282 c695 698 975 1061 1092 1412 127 380
55 758 -211 1117 -33 44 -58 81 -56 83 2 2 39 17 83 35 190 75 380 190 501
303 149 139 223 296 232 492 6 143 -15 229 -99 407 -39 82 -64 148 -67 177 -5
57 16 111 53 137 72 51 89 71 89 108 0 28 -8 44 -32 69 -32 31 -35 32 -120 32
-73 0 -96 -4 -145 -27 -80 -38 -158 -115 -193 -191 -25 -55 -29 -73 -28 -157
0 -52 6 -129 14 -170 20 -111 19 -247 -3 -287 -35 -66 -122 -87 -415 -103
l-203 -12 -34 26 c-31 24 -43 26 -162 30 -82 4 -171 14 -248 31 -220 46 -455
44 -680 -7 -54 -12 -140 -21 -214 -24 -115 -3 -127 -6 -162 -30 l-38 -26 -213
11 c-451 24 -471 43 -427 389 18 146 20 188 11 239 -21 126 -90 216 -208 274
-53 26 -80 33 -142 36 -42 1 -86 -1 -97 -6z m203 -90 c23 -11 57 -35 76 -52
39 -33 91 -131 83 -153 -8 -20 -88 -56 -125 -56 -61 0 -79 14 -86 67 -7 56
-33 103 -71 129 -15 11 -38 28 -52 40 -25 19 -25 21 -7 38 24 24 123 17 182
-13z m3448 12 c16 -16 15 -18 -11 -38 -83 -61 -125 -127 -125 -194 0 -39 -81
-54 -143 -27 -63 27 -71 38 -58 79 26 77 103 152 188 183 55 19 128 18 149 -3z
m-3280 -335 c-11 -95 -15 -107 -45 -115 -71 -19 -155 3 -186 50 -12 19 -12 28
0 62 8 24 19 39 27 36 48 -13 98 -11 143 7 28 11 54 20 59 21 5 1 6 -27 2 -61z
m2975 45 c32 -17 113 -24 152 -13 14 4 22 -4 32 -34 15 -42 10 -59 -22 -88
-43 -38 -174 -45 -192 -9 -12 23 -23 161 -13 161 5 0 24 -8 43 -17z m-3226
-153 c17 -28 86 -50 155 -50 81 0 92 -15 35 -49 -80 -47 -147 -47 -222 -1
l-33 20 22 45 c22 46 32 53 43 35z m3473 -35 l21 -44 -46 -28 c-61 -35 -123
-36 -189 -2 -30 15 -50 33 -52 45 -3 17 3 19 66 16 55 -3 78 1 110 17 22 11
43 25 47 31 11 18 21 11 43 -35z m-3507 -109 c24 -13 60 -27 79 -30 32 -5 105
8 153 29 13 5 17 2 17 -14 0 -40 -143 -111 -222 -111 -45 0 -108 30 -108 51 0
17 29 99 35 99 1 0 22 -11 46 -24z m3563 -23 c23 -66 21 -69 -29 -89 -56 -21
-116 -14 -194 22 -69 31 -91 51 -91 81 l0 23 43 -21 c61 -32 140 -30 198 3 24
14 47 26 51 27 3 1 13 -20 22 -46z m-3339 -123 c-39 -61 -90 -115 -143 -148
-49 -32 -159 -68 -170 -57 -4 3 -8 54 -10 112 l-4 106 23 -7 c82 -26 116 -28
179 -12 35 9 82 27 104 39 23 13 42 20 44 16 2 -4 -8 -26 -23 -49z m3190 -10
c41 -9 68 -9 103 0 80 19 77 21 80 -40 2 -30 1 -78 -3 -107 l-6 -52 -32 6
c-103 20 -193 80 -263 175 -60 81 -57 94 10 58 30 -15 80 -34 111 -40z m-3159
-83 c-59 -102 -238 -307 -267 -307 -12 0 -56 94 -61 129 -3 21 3 25 50 37 29
8 67 21 85 30 56 28 137 96 169 141 26 36 33 41 41 28 6 -11 1 -29 -17 -58z
m3078 -39 c51 -47 118 -84 187 -102 44 -11 53 -17 51 -32 -7 -36 -47 -128 -58
-131 -16 -5 -139 121 -206 211 -72 97 -90 130 -82 151 5 13 13 9 38 -22 17
-21 48 -55 70 -75z m-1409 42 c113 -13 259 -47 307 -71 21 -11 48 -38 65 -64
50 -82 66 -97 42 -42 -11 27 -30 65 -42 84 l-20 35 81 -3 c79 -4 82 -5 122
-44 67 -64 135 -177 171 -283 33 -97 33 -97 34 -292 0 -203 -9 -273 -57 -436
-16 -56 -26 -74 -45 -83 -14 -7 -28 -9 -31 -6 -3 3 -5 48 -5 101 0 69 -3 92
-11 84 -6 -6 -12 -77 -14 -181 l-4 -171 -38 -62 c-58 -95 -117 -217 -134 -278
-25 -83 -36 -254 -20 -301 12 -33 10 -53 -15 -178 -16 -77 -30 -141 -32 -144
-2 -2 -79 -48 -171 -102 l-167 -99 -86 9 c-51 6 -123 6 -180 1 l-94 -9 -173
101 -173 102 -28 139 c-24 119 -26 143 -16 175 14 42 7 187 -12 278 -14 68
-63 176 -129 286 l-50 83 -1 128 c-1 70 -4 153 -9 183 -6 50 -7 45 -9 -46 0
-55 -4 -103 -7 -107 -4 -3 -19 0 -35 8 -35 18 -61 95 -90 263 -23 139 -26 374
-4 474 28 135 94 263 182 352 l51 53 79 5 c43 3 80 4 83 1 2 -2 -8 -27 -24
-54 -36 -65 -29 -72 12 -13 36 50 66 66 170 90 172 40 362 52 527 34z m-1588
-25 l22 -15 -25 -38 c-74 -107 -116 -219 -136 -366 l-13 -89 -57 52 c-32 29
-71 70 -88 91 l-30 38 76 73 c72 70 176 196 203 247 14 26 19 27 48 7z m2909
-57 c27 -40 93 -118 146 -172 l97 -100 -19 -26 c-11 -15 -50 -55 -87 -90 l-68
-64 -11 85 c-19 146 -57 252 -125 352 -22 32 -39 60 -37 61 8 7 44 25 49 26 3
0 28 -33 55 -72z m-2724 1 c50 -8 79 -17 83 -27 3 -9 -14 -35 -43 -66 -118
-125 -159 -279 -117 -441 9 -35 12 -62 7 -67 -10 -10 -89 30 -169 84 l-43 29
0 70 c0 132 53 293 129 397 26 35 37 43 54 38 12 -3 57 -11 99 -17z m2615 -27
c73 -107 117 -239 126 -380 l5 -73 -40 -29 c-74 -54 -169 -103 -180 -92 -6 6
-3 30 7 67 13 42 16 83 13 150 -3 82 -8 101 -40 166 -21 42 -59 96 -87 126
-32 32 -49 57 -45 66 3 10 32 19 82 26 41 6 78 14 81 16 17 18 49 0 78 -43z
m-2270 -1 l63 -6 -40 -60 c-88 -131 -131 -291 -133 -497 -1 -76 -5 -138 -8
-138 -7 0 -130 43 -176 61 -64 26 -117 210 -96 328 21 112 98 229 190 290 50
33 71 35 200 22z m1996 -44 c164 -140 207 -330 120 -529 l-25 -57 -85 -30
c-46 -17 -89 -31 -96 -31 -9 0 -11 25 -9 91 8 212 -51 426 -156 566 l-23 32
48 4 c26 2 76 4 109 3 58 -2 65 -5 117 -49z m-2085 -907 c-15 -69 -11 -247 7
-315 39 -151 146 -304 277 -400 49 -35 56 -45 62 -84 10 -73 7 -135 -9 -158
-13 -19 -11 -38 20 -194 19 -95 36 -173 37 -174 2 -1 40 -24 85 -49 46 -26 85
-51 87 -54 2 -4 -6 -33 -19 -65 l-22 -59 -108 104 c-298 284 -490 602 -552
915 -20 104 -22 307 -4 403 21 106 70 247 98 281 l27 32 12 -69 c8 -48 9 -83
2 -114z m2045 43 c87 -264 54 -571 -94 -866 -63 -125 -226 -367 -204 -302 16
46 16 134 1 214 -9 46 -16 98 -16 117 0 19 -3 34 -6 34 -3 0 -26 -16 -50 -36
-25 -20 -47 -35 -50 -32 -2 3 -2 23 2 45 4 29 14 45 40 62 55 38 169 164 208
231 75 127 107 285 87 430 -7 53 -8 96 -1 123 5 23 12 56 15 72 l7 30 17 -22
c10 -11 29 -57 44 -100z m-2229 -144 c-23 -102 -23 -346 0 -449 75 -338 262
-643 577 -944 l121 -115 -59 -174 -59 -175 -111 122 c-349 382 -505 616 -591
886 -61 194 -68 421 -18 595 24 83 143 342 152 332 2 -2 -3 -37 -12 -78z
m2412 -119 c106 -252 104 -470 -6 -746 -64 -160 -182 -353 -308 -502 l-71 -83
-29 43 c-16 24 -37 59 -47 78 -10 19 -19 37 -21 39 -2 2 -65 -56 -140 -128
-75 -73 -140 -129 -144 -124 -24 24 -10 45 79 124 104 91 267 282 358 417 114
171 205 381 245 567 19 89 16 353 -5 438 -9 38 -17 71 -17 75 1 15 72 -118
106 -198z m-2126 20 c30 -12 40 -34 40 -89 0 -24 17 -63 55 -127 63 -105 128
-240 123 -255 -6 -18 -124 98 -172 168 -64 95 -98 195 -102 308 l-4 90 15 -41
c11 -29 25 -46 45 -54z m1276 -1462 c12 -36 20 -69 16 -72 -7 -7 -817 -8 -824
-1 -4 5 14 71 37 133 3 10 84 12 376 10 l372 -3 23 -67z m75 -233 c33 -94 83
-85 -471 -85 -269 0 -490 4 -490 8 0 11 31 115 37 125 2 4 207 6 455 5 l451
-3 18 -50z m-1 -192 c0 -4 -28 -36 -62 -70 l-62 -63 -345 0 -345 0 -68 67
c-38 37 -68 70 -68 73 0 3 214 4 475 2 261 -1 475 -6 475 -9z"/>
<path d="M2310 3397 c30 -26 83 -80 117 -120 l63 -72 0 -72 0 -71 -47 -31
c-25 -17 -55 -31 -65 -31 -11 0 -86 42 -167 94 -176 112 -243 147 -339 176
-97 30 -108 22 -24 -19 66 -32 70 -36 105 -107 45 -90 96 -149 144 -165 24 -8
68 -10 126 -6 79 5 93 3 114 -13 22 -17 27 -18 66 -4 23 8 60 26 83 39 l41 24
6 98 5 98 -66 68 c-63 65 -160 139 -199 154 -10 4 7 -14 37 -40z m-142 -319
c61 -39 112 -74 112 -79 0 -19 -115 -10 -160 14 -44 22 -89 80 -105 135 -6 22
-5 23 17 11 12 -7 74 -43 136 -81z"/>
<path d="M2826 3398 c-33 -23 -91 -71 -130 -108 l-70 -67 3 -99 c2 -114 4
-116 106 -158 59 -24 61 -24 90 -6 25 15 44 17 122 13 63 -4 102 -2 123 7 43
18 102 89 141 169 32 66 35 70 107 105 41 20 72 39 69 42 -9 9 -190 -56 -257
-93 -36 -19 -127 -75 -202 -125 l-137 -89 -33 17 c-84 43 -88 49 -88 126 0 68
2 73 42 125 23 30 74 84 112 119 39 35 69 64 66 63 -3 0 -32 -18 -64 -41z
m308 -280 c-49 -95 -98 -128 -194 -128 -33 0 -60 3 -60 8 0 15 264 175 268
162 2 -5 -4 -24 -14 -42z"/>
<path d="M3226 2894 c3 -70 2 -114 -4 -118 -21 -13 -81 -135 -115 -232 -32
-91 -60 -214 -84 -359 l-8 -49 -18 27 c-18 27 -17 31 4 115 l22 87 -43 78 -42
77 -64 0 c-35 0 -64 2 -64 4 0 4 -136 370 -151 405 -5 13 -12 22 -14 19 -3 -2
22 -96 55 -209 33 -112 60 -207 60 -211 0 -5 -15 -8 -32 -9 -44 -1 -20 -9 82
-28 l85 -16 34 -64 34 -65 -18 -87 -17 -88 61 -85 c34 -47 66 -88 71 -91 6 -4
10 23 10 67 0 209 64 496 147 661 33 67 34 71 27 150 -11 130 -24 145 -18 21z"/>
<path d="M1929 2958 c0 -7 -4 -47 -8 -88 -7 -71 -6 -78 22 -135 89 -178 143
-413 149 -638 1 -53 5 -96 9 -95 4 2 35 40 68 86 l62 83 -18 85 -17 84 34 69
33 70 71 11 c39 7 85 15 101 20 l30 8 -32 1 c-18 1 -33 6 -33 13 0 6 25 95 55
196 31 102 54 186 52 189 -2 2 -38 -86 -79 -194 l-74 -198 -64 -5 -64 -5 -43
-76 -42 -76 23 -85 23 -86 -21 -33 -21 -34 -7 40 c-56 317 -108 482 -191 598
-18 26 -19 38 -13 118 4 49 4 89 1 89 -3 0 -5 -6 -6 -12z"/>
<path d="M2332 2413 c-11 -4 -42 -54 -42 -67 0 -2 9 -2 20 1 11 3 38 -2 60
-11 22 -9 45 -16 51 -16 13 0 -7 38 -39 73 -27 28 -29 29 -50 20z"/>
<path d="M2789 2401 c-26 -21 -65 -81 -52 -81 4 0 30 8 56 17 39 14 52 15 67
5 24 -15 25 -10 5 28 -23 44 -48 54 -76 31z"/>
<path d="M2290 4474 c-19 -2 -80 -9 -135 -15 -146 -15 -311 -45 -465 -84 -134
-34 -379 -114 -429 -139 l-26 -14 40 -11 c97 -25 117 -24 231 12 682 221 1466
220 2157 -3 69 -22 108 -29 130 -25 56 12 107 28 107 35 0 9 -179 74 -321 115
-143 41 -361 87 -534 111 -114 16 -661 29 -755 18z"/>
<path d="M4163 3461 l-41 -30 -5 -593 c-4 -555 -5 -599 -25 -686 -63 -280
-192 -522 -438 -817 -85 -102 -1049 -1091 -1074 -1103 -6 -2 -702 694 -858
858 -401 424 -573 700 -658 1055 -15 60 -18 158 -23 673 l-6 602 -45 30 -45
30 -3 -523 c-2 -311 1 -576 8 -655 29 -355 164 -648 475 -1023 96 -116 1137
-1184 1154 -1184 13 0 972 977 1079 1099 299 342 442 591 520 906 l26 105 3
565 c2 311 3 600 1 643 l-3 79 -42 -31z"/>
</g>
</svg>
